<?xml version="1.0" encoding="UTF-8"?>
<svg viewBox="0 0 351.9 404.44" xmlns="http://www.w3.org/2000/svg">
 <g fill-rule="evenodd">
  <g fill="#0a192e">
   <path d="m202.51 140.19c6.752 12.421 9.358 21.764 5.555 35.117 4.646 0.17001 12.943-2.896 15.87-6.746 5.808 10.727-2.188 27.135-11.703 33.328-2.988 1.944-8.468 1.365-10.714 3.57-3.752 3.683-2.894 15.82-3.67 20.731-2.968 18.787-14.252 28.352-33.428 20.136 12.697-35.379 25.394-70.757 38.09-106.14"/>
   <path d="m213.03 352.26c-0.063995-6.987-3.948-44.235-13.887-41.858-7.134 1.706-11.758 22.863-12.896 28.767-6.287-13.225-2.674-37.807-0.59399-52.177-17.433-1.081-12.807-26.144-8.531-37.097-3.241-0.992-6.481-1.983-9.722-2.976 1.82-0.452 3.547-1.22 5.557-1.39-12.043-0.268-23.736-2.78-35.314-5.951-4.851-1.328-10.566-2.909-14.282-4.96-3.164-1.746-1.734-5.26-7.54-4.167-0.302-7.318 9.902-5.692 11.308-12.298-1.648-4.47-3.607-3.318-8.728-1.787 3.479-0.168 5.664-2.611 7.539-5.754-10.729 4.512-25.028 7.98-35.115 0.992-9.99-6.921-17.431-21.765-19.441-33.725-2.611-15.537 5.812-36.337 9.919-51.181 2.327-8.41 9.364-14.583 14.879-21.822 1.103 4.27 9.482 10.519 14.284 10.314-0.583 5.561 25.814 8.627 29.558 9.324 7.423 1.381 7.197-0.839 12.895-6.547 5.76-5.769 10.922-14.399 13.292-22.219 4.972 0.87 2.676-7.647 7.539-7.538 3.193 0.071999 10.615 6.266 9.522 10.314-1.869 6.924-26.021 14.624-19.044 26.782 5.41-4.653 18.014-25.409 23.807-14.879 2.264 4.115-4.454 13.579 2.777 10.516 0.793 2.91 1.586 5.82 2.379 8.729-6.355-1.018-4.805-10.923-14.481-7.738-7.144 2.352-10.573 12.641-10.316 19.441-2.828-2.517-0.671-7.376-1.983-11.307-1.938-5.808-4.051 1.79-3.67 4.463 0.89 6.247 2.301 12.043 6.546 17.061 5.071 5.994 14.393 11.674 14.978 19.342 0.286 3.758-9.638 21.146 1.191 10.316 14.295-14.295-7.334-19.841-13.887-31.146 5.683-2.399 11.894-3.451 16.961-7.141 3.363-2.45 4.311-6.683 6.646-9.125 2.79 5.379 6.405 10.27 9.127 15.673-0.98799-3.754-0.966-7.794-3.174-11.111-2.342-3.516-4.622-6.353-3.77-10.911-4.155 1.519-4.279-6.911-3.57-8.927 0.588-1.669 3.443-3.159 4.363-5.456 0.89-2.219 1.983-5.232 1.983-7.637 0-14.569-8.604-24.404-20.234-30.949-5.723-3.221-3.965-0.247-3.968-7.339-0.028-62.41-74.092-81.681-121.87-56.38-28.605 15.149-58.218 38.79-53.576 74.798 3.38 26.222 10.127 49.788 25.645 71.767 8.938 12.661 12.961 19.525 14.305 35.393 0.957 11.305 4.354 24.59 12.103 33.528 4.354 5.023 10.304 8.338 16.663 10.116 4.724 1.321 17.657-0.177 17.657 4.268 0 9.951-2.992 20.448-3.77 30.45-1.095 14.076-5.723 23.979-11.109 37-6.013 14.54-12.07 28.843-14.878 44.14-1.112 6.06-2.625 11.918-3.571 17.855-1.333 8.379-2.203 10.286 6.149 14.483 23.862 11.99 54.867 19.044 81.581 19.044 11.859 0 23.672 0.68701 35.466 0.79401 5.396 0.049011 8.429-0.12201 12.103-2.976 3.875-3.011-0.014999-4.671 7.042-5.753 10.203-1.565 19.237-1.971 20.235-13.888 0.842-10.069-3.481-19.589-3.077-29.56"/>
   <path d="m193.98 230.26"/>
  </g>
  <g fill="#ffd0d0">
   <path d="m121.18 215.57c0.671-0.386 1.194-0.35199 1.786-1.189-0.034996 0.037994-1.613 1.09-1.786 1.189"/>
   <path d="m121.18 215.57c-0.991 0.449-1.472 1.024-2.776 0.79401 1.361 0.13098 2.251-0.55501 2.776-0.79401"/>
   <path d="m191.2 239.58c9.398-15.023 4.449-39.007 10.119-55.748 3.525-10.41 7.382-16.247 5.158-27.375-1.691-8.464-7.422-15.121-11.31-22.617-2.027 2.121-3.008 5.839-5.555 8.331-4.682 4.58-12.237 5.48-18.052 7.936 6.006 10.362 28.269 17.178 14.481 30.552-11.246 10.909-2.422-3.966-1.885-8.828 1.371-12.421-20.911-21.236-21.326-36.603-0.070007-2.607-0.58301-10.059 3.373-5.752 2.807 3.056-0.88199 9.175 2.182 11.903-0.257-6.8 3.172-17.09 10.316-19.441 9.676-3.185 8.125 6.72 14.481 7.738-0.793-2.91-1.586-5.82-2.379-8.729-7.153 3.029-1.022-5.918-2.381-9.722-4.586-12.841-19.248 9.823-24.203 14.084-2.451-4.271 2.253-11 5.157-14.778 2.513-3.269 13.102-8.454 14.087-11.209 1.588-4.444-6.19-10.689-9.722-10.912-4.806-0.303-2.575 8.209-7.539 7.341-2.458 8.109-7.688 15.011-12.697 21.623-4.932 6.51-6.557 8.433-13.49 7.143-3.744-0.697-30.141-3.764-29.558-9.324-4.802 0.205-13.181-6.044-14.284-10.314-5.515 7.239-12.552 13.412-14.879 21.822-4.107 14.844-12.53 35.645-9.919 51.181 2.01 11.96 9.451 26.804 19.441 33.725 10.087 6.988 24.386 3.52 35.115-0.99199-1.143 0.97299-1.751 2.668-2.778 3.771 2.558 0.73399 3.293 1.94 3.968 3.771-1.403 6.591-13.396 5.787-10.316 12.895 2.633 6.077 19.4 8.13 24.504 9.559 13.455 3.765 37.955 10.34 49.891-1.031"/>
  </g>
 </g>
 <path d="m197.36 127.29c0.565-1.411-0.063004 0.155 0 0" fill="#0a192e"/>
 <g fill="#7f0000">
  <path d="m167.4 71.35c0.875 2.828 16.457 11.785 14.284 4.959 8.908 6.683 21.252 24.793 14.086 34.717-5.889 8.154-5.383-3.676-7.937-9.424-2.125-4.781 1.266-8.943-4.662-12.498-3.208-1.924-5.067-4.598-7.836-5.257-0.58499-6.126-31.911-9.559-38.288-9.919 10.123-3.695 19.958-1.605 30.353-2.578"/>
  <path d="m144.39 77.104c2.309 2.924 8.246 1.756 11.706 3.569-1.882 13.704-8.817 29.48-19.641 38.487 7.287-8.322 15.871-21.15 16.069-32.336-4.37 8.263-12.223 34.424-24.798 31.542 12.294-7.958 16.8-21.428 21.625-34.518-12.028 4.165-9.072 35.185-28.368 33.526 4.7-3.727 29.856-28.559 22.614-33.129-3.302 8.344-16.788 33.91-27.773 31.742 10.12-7.213 21.327-16.898 24.203-29.56-7.106 10.529-14.656 22.994-26.583 26.979 8.622-6.89 14.41-13.532 19.838-22.814-4.066 0.784-5.67 6.034-8.135 9.327-3.885 5.189-8.698 9.069-14.284 12.298 0.103-0.63 0.042-0.663-0.395-0.992 5.263-3.285 16.985-10.593 14.679-17.657-1.408 2.606-15.806 19.711-18.251 17.26-1.913-1.917-7.564-6.359-7.737-8.332-0.526-6.004 18.626-18.401 24.104-21.623 4.68-2.754 15.802-4.813 21.127-3.769"/>
  <path d="m163.43 81.864c1.667 0.854 1.415 2.326 4.564 1.389-2.48 9.059-5.711 17.667-11.111 25.393 2.901-6.106 6.737-12.216 6.151-19.244-4.639 11.525-9.506 23.53-19.443 31.544 6.691-10.633 18.767-22.221 16.268-35.907-3.4 3.767-2.402 9.766-4.663 14.283-3.976 7.945-10.618 14.024-15.176 21.624 0.153-3.587 7.057-9.592 9.553-13.901 4.624-7.984 7.219-17.404 9.096-26.372 1.694 1.774 3.306 0.762 4.761 1.191"/>
 </g>
 <path d="m115.22 101.7c-1.494 3.688-5.569 4.311-8.728 6.349 2.467-2.612 5.896-4.372 8.728-6.349" fill="#0a192e"/>
 <path d="m183.27 125.31c-6.277 1.315-9.278 7.256-12.298 12.302 0.93401-4.584 6.552-18.969 12.298-12.302" fill="#ffc3c3"/>
 <path d="m130.7 130.07c-1.103 7.751-20.032 1.389-25.59 1.389-10.602 0-12.961 8.303-21.228 13.687 1.799-2.385 4.065-3.946 6.349-5.851 3.15-2.627 2.103-5.963 5.157-8.829 8.914-8.361 25.735-2.911 35.312-0.396" fill="#0a192e"/>
 <path d="m190.02 133.84c-0.774 2.738-2.794 4.854-5.356 6.149-0.301-2.951-1.907-5.434-4.365-7.141 3.131-2.098 7.508-2.482 9.721 0.992" fill="#fff"/>
 <path d="m76.738 134.44c0.661 0.065994 1.323 0.133 1.984 0.2-2.986 5.707-3.53 12.27-6.746 17.854-0.55-0.99-1.264-1.369-1.787-1.984-3.323 11.983-4.062 24.464-1.784 36.701 0.458-8.291-0.879-21.358 2.381-28.568 0.10799 5.01-1.851 9.768-1.786 14.682 0.074997 5.75 2.506 11.497 4.202 17.066 3.875 12.727 13.912 23.932 26.547 28.363-17.297-3.683-25.471-17.415-30.947-32.337-4.375 27.809 34.068 39.868 54.556 33.528-21.421 13.007-62.237 25.288-75.586-4.96-2.261-5.124-5.884-17.305-4.165-22.814 1.192-3.82 6.618-7.785 8.81-11.007 10.01-14.719 16.067-31.684 23.129-47.915 0.304 0.98801 1.305 1.294 1.192 1.191" fill="#7f0000"/>
 <path d="m178.51 135.03c6.987 4.509 0.147 9.208-6.151 8.133 0.759-3.59 2.308-7.317 6.151-8.133" fill="#5a3d1c"/>
 <path d="m262.43 158.04c1.009-0.45599 3.438 0.365 5.754 1.787 0.492-6.685 0.56302-15.205 4.859-20.732 3.403-4.377 5.87 13.795 6.052 14.583 2.103 9.102 4.372 20.566 12.496 25.988 6.483 4.327 12.176 10.565 18.054 14.483 2.073 1.382 9.346 3.104 9.355 3.402 0.177 5.894 0.88901 11.604 1.798 17.428 1.603 10.255 5.25 20.525 7.842 30.581 5.108 19.812 5.189 37.875-9.076 54.325 4.882-1.686 8.063-13.531 13.689-13.688-1.177 3.33-4.35 16.591-2.778 19.343 3.61 6.323-6.091 21.585-8.332 27.675 3.071-0.77802 19.971-31.372 25.592-24.601 2.981 3.592-10.529 22.446-12.598 26.286-4.357 8.091 11.059 21.324 16.764 26.089-5.014 2.183-9.102 7.141-14.482 7.141-3.854 0-5.89 3.582-9.324 4.762-4.383 1.506-9.769-1.29-11.108 4.96-4.56-3.215-7.985-7.482-11.109-12.5-6.258 10.813-22.673 33.416-36.019 32.528-11.772-0.78302-26.996-1.611-38.178-5.349-6.849-2.288-13.834 2.744-9.522-9.125 1.947-5.361 5.613-9.955 7.936-15.078 3.493-7.706 3.549-18.128 7.638-25.491 5.083-9.155 4.93-18.589 13.192-26.089 8.368-7.595 24.118-10.952 20.235-24.5-2.836-9.892 1.679-20.46 0.19-30.9-2.028-14.226-10.025-25.755-13.284-39.426-1.401-5.878-6.315-25.435 4.563-20.038 10.287 5.104 15.099 26.688 18.054 36.701 0.125-6.514 0.569-20.328-2.381-25.59-3.771-6.724-9.161-5.103-6.746-11.311 1.583-4.07 5.767-1.542 3.87-9.125-1.377-5.51-3.658-8.588-7.043-12.895-6.43-8.178-5.657-11.104-5.953-21.624" fill="#0a192e"/>
 <g fill="#faa">
  <path d="m327.5 308.82c-5.134 8.377-11.012 16.144-18.449 22.616 3.351-12.601 26.469-23.101 19.838-39.08-6.32 9.181-14.5 17.338-23.408 24.004-0.19098-0.61801-0.30798-0.60501-0.79498-0.79501 6.317-10.388 15.87-18.59 22.249-29.029 4.839-7.92 3.155-15.819 2.352-24.534-8.366 10.275-14.771 21.583-23.806 31.347-9.088 9.82-22.909 17.521-26.819 30.359-4.294 14.098-19.215 41.583-37.656 27.567-2.206 4.623-3.689 9.159-4.762 13.887 0.08699-0.384 0.99199 1.928 0.99199 2.48 0 3.368-3.769 2.831-3.769 6.05 0 3.778-7.785 9.931-9.524 15.474 8.656 1.157 17.313 2.313 25.971 3.471 5.054 0.67502 19.351 5.335 23.924 2.582 8.246-4.964 12.476-10.486 19.045-17.063 9.404-9.415 16.58-19.439 27.18-28.07 5.917-4.818 10.978-9.57 15.38-15.828 4.519-6.422 5.003-14.636 9.318-21.47-9.511-2.571-19.063 24.174-28.766 27.378 5.413-8.963 14.859-22.069 12.895-32.931-0.465 0.52899-0.92798 1.057-1.39 1.585"/>
  <path d="m276.12 145.55c1.55 8.401 4.535 16.562 5.752 24.996-8.83-5.834-16.678-18.668-8.529-28.371 0.32202 3.328 1.631 2.756 2.777 3.375"/>
 </g>
 <path d="m139.43 154.47c-8.635 10.944-34.02 20.138-44.042 5.355 10.709 3.665 14.309-10.421 23.111-14.482 9.103-4.199 14.12 5.612 20.931 9.127" fill="#0a192e"/>
 <path d="m124.94 146.93c-2.579 0.463-5.159 0.92601-7.738 1.389 2.319-1.927 5.606-2.362 7.738-1.389" fill="#ffc3c3"/>
 <path d="m132.48 154.47c3.104 5.578-7.077 9.623-11.506 9.72 2.603-3.674 2.087-8.013-1.984-10.514 3.895-2.859 10.756-2.84 13.49 0.79401" fill="#fff"/>
 <path d="m119.59 161.62c-3.151 3.405-7.938 1.632-11.706 0 4.41-5.489 9.264-7.643 11.706 0" fill="#5a3d1c"/>
 <path d="m210.65 200.1c-3.471 0.65201-6.911-0.123-8.729 3.174 0.508-8.409 1.84-14.216 5.455-21.426 2.959-5.899 11.648-4.557 15.772-11.308 1.123 11.283-2.428 23.308-12.498 29.56" fill="#7f0000"/>
 <path d="m173.95 173.91c-2.036 2.573-4.916 4.232-6.548 7.143-0.056015-4.015 3.679-6.288 6.548-7.143" fill="#0a192e"/>
 <path d="m281.87 194.55c-0.98599 0.99701-2.575 1.627-3.768 2.381-0.46301-2.447-0.927-4.894-1.39-7.341 2.478 0.97598 4.538 3.177 5.158 4.96" fill="#faa"/>
 <path d="m192.2 197.13c-3.739 5.593-3.355 18.052-12.199 18.052-9.381 0-12.998-7.063-20.93-8.332 5.99-0.86 10.198-4.148 16.564-4.86 6.764-0.757 10.861-6.94 16.565-4.86" fill="#f00"/>
 <path d="m313.81 199.51c5.075-4.982 4.532 5.691 4.863 9.818 0.508 6.34 0.84198 12.8 2.389 18.992 2.381 9.531 7.66 17.739 6.535 27.827-2.119 18.999-28.023 38.011-40.769 51.087 13.283-12.651 19.079-33.653 24.203-50.788 2.486-8.314 6.01-34.188-1.983-41.264-1.427-1.263-7.788-3.386-8.133-0.396-0.41101 3.565 6.359 2.225 7.339 5.157 6.162 18.44-1.328 37.891-5.952 55.747-0.36301-9.006-4.441-6.129-8.53-0.59702-5.936 8.03-11.477 16.396-19.243 22.814 0.67801-3.995-1.563-6.738-1.785-10.513-0.509-8.647 3.229-16.724 2.306-25.94-1.038-10.369-6.75-20.544-10.736-30.018-2.058-4.888-10.502-21.582-7.242-26.771 5.938-9.454 19.137 27.736 19.938 34.123 0.92102 7.337 4.938 21.85 14.185 22.021-7.944-10.426-7.85-16.48-7.305-28.996 0.43201-9.923 0.22501-6.737 7.701-8.895 3.943-1.138 7.268-2.188 9.92-5.557-3.011-0.92099-20.526 9.271-18.252-0.396 0.74698-3.174 9.433-7.022 11.903-8.927 4.486-3.457 11.146-6.24 14.681-10.318 1.313 2.79 2.628 1.275 3.967 1.79" fill="#faa"/>
 <path d="m286.83 210.61c-3.691 8.187-8.41 0.085007 0 0" fill="#ab10d2"/>
 <path d="m117.01 216.37c-0.173 0.052002-1.23 0.727-2.184 0.597 0.662-0.362 2.171-0.593 2.184-0.597" fill="#ffd0d0"/>
 <path d="m306.67 232.84c-3.684-2.544-7.761-4.406-11.309-7.143 4.279 1.106 8.27 3.983 11.309 7.143" fill="#0a192e"/>
 <path d="m173.55 250.29c-2.606 9.375-1.005 19.113-2.976 28.567-27.135-10.975-52.435-25.632-80.545-34.12 3.961-4.274 3.475-4.782 9.126-7.144 2.86-1.195 6.072-1.346 8.828-2.876 5.047-2.805 4.901-2.259 10.49 0.534 16.364 8.178 37.073 14.287 55.077 15.039" fill="#ffd0d0"/>
 <path d="m295.95 261.4c-1.641-3.154-4.054-5.698-5.951-8.728 3.064 2.044 5.397 5.517 5.951 8.728" fill="#0a192e"/>
 <path d="m130.1 269.93c9.777 7.25 22.602 9.703 33.33 15.078 5.717 2.865 6.283 2.365 7.539 8.333 0.94701 4.497-1.518 9.593 1.387 13.29 4.563-4.543 0.617-10.583 1.786-16.068 9.366 1.257 7.787 7.384 7.487 15.224-0.39601 10.343-0.339 21.113 1.698 31.294 2.039 10.188 3.542 9.324 5.892 0.897 2.471-8.857 6.128-16.926 9.127-25.593 13.875 10.112 10.462 39.455 14.184 54.357 1.49 5.964 4.563 15.574 0.29799 21.028-2.695 3.446-6.121 3.357-10.911 4.363-3.309 0.69501-10.196 0.87399-12.101 2.184-2.575 1.772-1.722 2.999-2.976 4.364 0.056992-0.063019 1.739 1.961 1.189 2.579-1.11 1.249-2.228 0.053009-3.968 0.79202-14.456 6.143-12.856-9.714-19.839-15.472 2.663-6.478-9.024-20.778-12.587-26.122-8.433-12.646-18.891-23.044-31.589-31.392-21.259-13.976-39.624-11.076-56.008 7.123 5.092-17.396 14.195-33.275 19.044-50.785 7.332 3.68 14.318 5.637 21.61 9.918 12.972 7.615 25.608 15.636 37.907 24.302 12.8 9.019 24.662 18.987 36.128 29.637 3.038 2.821 1.94 7.664 5.136 10.735 3.553 3.414 8.068 2.955 12.498 8.331 2.401 2.915 4.006 8.355 6.547 10.713 0.729 0.67602 5.478 2.862 3.41-0.23999-15.295-22.948-36.621-42.947-58.75-59.257-18.032-13.29-36.842-25.423-57.299-34.673-10.963-4.957-2.303-20.244-2.226-30.813 14.598 3.134 29.207 9.75 42.057 15.873" fill="#ffa"/>
 <g fill="#faa">
  <path d="m268.18 325.68c3.238 2.14 7.094-4.756 11.108-6.149-4.85 12.27-10.792 32.733-27.079 32.733-14.845 0-7.027-14.15-4.266-23.805 2.137-7.468 6.504-10.807 12.498-15.674 4.846-3.935 13.345-6.712 17.061-10.314 1.018-0.98602 2.961-6.686 5.356-9.325 5.456-6.011 11.484-11.394 15.078-18.847 1.683 21.72-20.239 34.299-29.756 51.381"/>
  <path d="m333.44 349.29c-2.754 2.726-4.349 6.168-5.157 9.92 3.324-2.279 4.98-6.024 7.142-9.323 0.095001 4.635-4.484 7.153-4.563 11.903 2.752-2.943 4.739-6.44 7.538-9.326 4.068 3.895-1.443 8.198-1.189 12.5-3.045 0.14499-5.677 1.214-8.73 2.379-2.095 0.79898-4.732 2.168-6.546 2.976-2.871 1.278-4.388-1.533-5.951 2.58-2.82-1.37-3.042-3.244-4.167-6.052-2.066-5.159-5.447-1.228 0.396-8.231 2.819-3.381 24.374-22.68 21.227-9.326"/>
 </g>
 <path d="m344.76 360.99c-1.078 0.802-2.684 0.64999-3.57 2.578 0.34399-2.27 1.054-4.767 1.784-6.943 2.72 1.481 1.825 2.547 1.786 4.365" fill="#ab10d2"/>
 <path d="m112.84 163.4c4.011-0.52701 4.55-6.611 0-6.351-4.638 0.267-3.403 5.851 0 6.351" fill="#0a192e"/>
 <path d="m175.73 143.76c3.652-0.948 4.653-6.448 0-6.548-4.689-0.102-3.662 5.599 0 6.548"/>
 <g fill="#fff">
  <path d="m116.22 160.23c0.155-2.035-0.15601-2.035 0 0"/>
  <path d="m176.92 139c1.096-2.284-0.933-1.686 0 0"/>
 </g>
 <path d="m264.01 158.84c8.204 3.578 15.895 13.999 23.014 19.443 4.343 3.321 8.935 7.2 12.498 10.314 2.657 2.323 5.277 2.966 7.142 6.548-6.743 3.787-14.857 12.298-22.814 12.298-3.789 0-14.029 2.477-8.331-4.661 2.604-3.262 11.62-6.84 11.307-11.21-0.20001-2.797-13.077-10.895-15.374-13.192-5.182-5.18-10.108-11.919-7.442-19.54" fill="#faa"/>
 <path d="m124.35 399.68c14.376 1.321 28.827 1.184 43.248 0.79498-0.17999-3.839-2.139-6.194-4.365-9.524-5.015-7.503-8.923-16.924-13.689-24.996-9.661-16.36-24.984-34.443-44.04-40.866-16.736-5.642-30.076 1.924-40.274 15.176-4.775 6.204-5.942 16.757-7.141 24.501-0.688 4.442 2.365 10.981-0.397 14.085 19.443 12.259 44.975 17.048 66.658 20.829" fill="#ffa"/>
 <path d="m166.99 52.709c-8.985-23.152-29.844-41.425-54.159-46.819-13.389-2.97-30.049 2.05-43.162 4.927-14.345 3.146-26.97 7.659-37.302 18.434-9.397 9.801-22.336 21.969-25.871 35.559-3.279 12.612-2.535 30.891 0.199 43.645 3.066 14.301 13.123 25.309 20.632 37.496 3.569 5.792 6.708 11.783 10.116 17.657 4.904 8.451 6.234 5.543 11.904-2.181 16.436-22.391 31.891-45.255 49.992-66.459 9.472-11.094 20.866-18.395 34.186-24.271 6.406-2.827 12.978-5.87 19.775-7.633 9.293-2.411 11.74 0.431 13.69-10.355" fill="#d4aaff"/>
 <path d="m184.66 203.87c-1.391 7.364-6.26 7.358-11.506 3.57 3.223-2.004 9.178-3.192 11.506-3.57" fill="#fff"/>
</svg>
